<?xml version="1.0" encoding="utf-8"?>
<!-- Generator: Adobe Illustrator 23.0.1, SVG Export Plug-In . SVG Version: 6.00 Build 0)  -->
<svg version="1.1" id="Layer_1" xmlns="http://www.w3.org/2000/svg" xmlns:xlink="http://www.w3.org/1999/xlink" x="0px" y="0px"
	 viewBox="0 0 1000 1000" enable-background="new 0 0 1000 1000" xml:space="preserve">
<g>
	<path fill="#D0D2D3" d="M486.2,443.6c-64.5,0-124.8,32-161,85.5c60.2-53.4,152.2-47.9,205.6,12.3s47.9,152.2-12.3,205.6
		c-55.2,48.9-138.2,48.9-193.3,0c60.2,88.9,181,112.2,270,52.1c88.9-60.2,112.2-181,52.1-270C611.1,475.6,550.8,443.6,486.2,443.6"
		/>
	<path fill="#D0D2D3" d="M507.8,253.2c-36.1,53.4-43.4,121.3-19.4,181.1c-10.7-79.9,45.3-153.3,125.2-164
		c79.9-10.7,153.3,45.3,164,125.2c9.9,73.5-36.9,142.7-108.8,160.9c107.4,0,194.4-87,194.5-194.3c0-107.4-87-194.4-194.3-194.5
		c-64.5,0-124.9,32-161.1,85.5"/>
	<path fill="#D0D2D3" d="M378.5,703.2c62.6-15.7,113.3-61.4,135.2-122.1c-45.4,66.5-136.1,83.5-202.5,38.1
		c-66.5-45.4-83.5-136.1-38.1-202.5c41.6-61,122.3-81.1,187.7-47c-80-71.6-202.9-64.7-274.5,15.3S121.6,588,201.6,659.5
		C249.7,702.5,316,718.9,378.5,703.2"/>
</g>
</svg>
